# xmcd
#
# Track frame offsets: 
#        150
#        9705
#        25153
#        44298
#        67247
#        88504
#        113354
#        123928
#        146254
#        158920
#        175333
#        180211
#        206417
#        234512
#        262248
#        289493
#
# Disc length: 4256 seconds
#
# Revision: 2
# Processed by: cddbd v1.5.2PL0 Copyright (c) Steve Scherf et al.
# Submitted via: ExactAudioCopy v0.99pb4
#
DISCID=db109e10
DTITLE=Knut Reiersrud - Sub
DYEAR=1999
DGENRE=Blues
TTITLE0=Ghost Dance
TTITLE1=You Ought To Treat A Stranger Right
TTITLE2=Min død er meg til gode
TTITLE3=God Don't Ever Change
TTITLE4=Big Little Me
TTITLE5=Weakness Is A Thing Called Man
TTITLE6=The Barbers Pulse
TTITLE7=Willie And The Handjive
TTITLE8=Doing The Dishes
TTITLE9=Anna
TTITLE10=Hit Me With Your Fingerpicks
TTITLE11=Himmelskip
TTITLE12=Blues Power Part 1
TTITLE13=Same Thing
TTITLE14=Let Me Turn You On
TTITLE15=I Don't Feel Noways Tired
EXTD=
EXTT0=
EXTT1=
EXTT2=
EXTT3=
EXTT4=
EXTT5=
EXTT6=
EXTT7=
EXTT8=
EXTT9=
EXTT10=
EXTT11=
EXTT12=
EXTT13=
EXTT14=
EXTT15=
PLAYORDER=
